<svg xmlns="http://www.w3.org/2000/svg" version="1.1" xmlns:xlink="http://www.w3.org/1999/xlink" viewBox="0 0 200 200"><rect width="200" height="200" fill="url('#gradient')"></rect><defs><linearGradient id="gradient" gradientTransform="rotate(45 0.5 0.5)"><stop offset="0%" stop-color="#000000"></stop><stop offset="100%" stop-color="#054800"></stop></linearGradient></defs><g><g fill="#5dff1b" transform="matrix(5.358139534883721,0,0,5.358139534883721,6.904286759121476,138.07395440035089)" stroke="#ffffff" stroke-width="0.05"><path d="M9.56-14.22L9.56-5.56L11.01-5.56L11.01-3.02L9.56-3.02L9.56 0L6.27 0L6.27-3.02L0.77-3.02L0.58-5.03L6.27-14.19L6.27-14.22L9.56-14.22ZM6.06-9.60L3.71-5.56L6.27-5.56L6.27-9.93L6.06-9.60ZM22.32-8.40L22.32-5.81Q22.32-2.93 21.03-1.37Q19.74 0.20 17.38 0.20L17.38 0.20Q15.01 0.20 13.71-1.38Q12.41-2.95 12.41-5.81L12.41-5.81L12.41-8.41Q12.41-11.29 13.71-12.85Q15-14.41 17.36-14.41Q19.73-14.41 21.03-12.84Q22.32-11.27 22.32-8.40L22.32-8.40ZM19.03-5.31L19.03-8.83Q19.03-10.36 18.63-11.12Q18.23-11.88 17.36-11.88L17.36-11.88Q16.51-11.88 16.13-11.17Q15.74-10.47 15.71-9.04L15.71-9.04L15.71-5.41Q15.71-3.82 16.11-3.08Q16.51-2.34 17.38-2.34L17.38-2.34Q18.22-2.34 18.62-3.06Q19.02-3.78 19.03-5.31L19.03-5.31ZM32.72-14.22L32.72-5.56L34.17-5.56L34.17-3.02L32.72-3.02L32.72 0L29.43 0L29.43-3.02L23.94-3.02L23.74-5.03L29.43-14.19L29.43-14.22L32.72-14.22ZM29.23-9.60L26.88-5.56L29.43-5.56L29.43-9.93L29.23-9.60Z"></path></g></g></svg>